<svg width="243" height="64" viewBox="0 0 243 64" fill="none" xmlns="http://www.w3.org/2000/svg">
<path d="M50.456 -3.8147e-06V0.191998H44.696V47.808H50.456V48H27.544V47.808H32.984V24.416H17.496V47.808H22.968V48H0.024V47.808H5.784V0.191998H0.024V-3.8147e-06H22.968V0.191998H17.496V24.224H32.984V0.191998H27.544V-3.8147e-06H50.456ZM69.4855 48.64C66.1788 48.64 63.3202 47.936 60.9095 46.528C58.5202 45.12 56.6748 43.2533 55.3735 40.928C54.0722 38.6027 53.4215 36.0533 53.4215 33.28C53.4215 30.5067 54.0722 27.9573 55.3735 25.632C56.6748 23.3067 58.5202 21.44 60.9095 20.032C63.3202 18.624 66.1788 17.92 69.4855 17.92C72.8135 17.92 75.6722 18.624 78.0615 20.032C80.4722 21.44 82.3175 23.3067 83.5975 25.632C84.8988 27.9573 85.5495 30.5067 85.5495 33.28C85.5495 36.0533 84.8988 38.6027 83.5975 40.928C82.3175 43.2533 80.4722 45.12 78.0615 46.528C75.6722 47.936 72.8135 48.64 69.4855 48.64ZM69.4855 48.448C70.4028 48.448 71.1815 48.0533 71.8215 47.264C72.4828 46.4747 73.0162 45.3867 73.4215 44C73.8482 42.6133 74.1575 41.0027 74.3495 39.168C74.5415 37.3333 74.6375 35.3707 74.6375 33.28C74.6375 31.1893 74.5415 29.2267 74.3495 27.392C74.1575 25.5573 73.8482 23.9467 73.4215 22.56C73.0162 21.1733 72.4828 20.0853 71.8215 19.296C71.1815 18.5067 70.4028 18.112 69.4855 18.112C68.5682 18.112 67.7788 18.5067 67.1175 19.296C66.4775 20.0853 65.9548 21.1733 65.5495 22.56C65.1442 23.9467 64.8455 25.5573 64.6535 27.392C64.4615 29.2267 64.3655 31.1893 64.3655 33.28C64.3655 35.3707 64.4615 37.3333 64.6535 39.168C64.8455 41.0027 65.1442 42.6133 65.5495 44C65.9548 45.3867 66.4775 46.4747 67.1175 47.264C67.7788 48.0533 68.5682 48.448 69.4855 48.448ZM100.716 48.448C98.4973 48.448 96.8013 48.128 95.628 47.488C94.4547 46.8267 93.644 45.8987 93.196 44.704C92.7693 43.488 92.556 42.0587 92.556 40.416V12.16C94.22 12.16 96.0333 12.0213 97.996 11.744C99.98 11.4453 101.644 10.944 102.988 10.24V42.336C102.988 43.936 103.18 45.1093 103.564 45.856C103.948 46.5813 104.567 46.944 105.42 46.944C106.401 46.944 107.489 46.496 108.684 45.6C109.879 44.6827 110.849 43.3067 111.596 41.472L111.788 41.504C111.02 43.5307 109.708 45.1947 107.852 46.496C105.996 47.7973 103.617 48.448 100.716 48.448ZM87.884 18.752V18.56H109.836V18.752H87.884ZM114.591 48.64V38.272H114.783C115.529 40.4053 116.511 42.2293 117.727 43.744C118.943 45.2587 120.372 46.4213 122.015 47.232C123.679 48.0213 125.535 48.416 127.583 48.416C129.012 48.416 130.217 48.224 131.199 47.84C132.201 47.456 132.959 46.9227 133.471 46.24C134.004 45.5573 134.271 44.768 134.271 43.872C134.271 42.7627 133.812 41.8773 132.895 41.216C131.977 40.5547 130.783 39.9893 129.311 39.52C127.86 39.0293 126.313 38.528 124.671 38.016C123.049 37.4827 121.513 36.8107 120.062 36C118.612 35.168 117.428 34.08 116.511 32.736C115.593 31.3707 115.135 29.6213 115.135 27.488C115.135 25.6533 115.572 24.0213 116.447 22.592C117.343 21.1627 118.569 20.0427 120.127 19.232C121.684 18.4 123.476 17.984 125.503 17.984C126.996 17.984 128.34 18.2293 129.535 18.72C130.729 19.1893 131.785 19.808 132.703 20.576L137.055 17.92H137.247V26.88H137.055C136.223 25.3013 135.273 23.8613 134.207 22.56C133.161 21.2373 131.924 20.1813 130.495 19.392C129.087 18.5813 127.423 18.176 125.503 18.176C124.287 18.176 123.263 18.3573 122.431 18.72C121.62 19.0613 121.001 19.5307 120.575 20.128C120.148 20.7253 119.935 21.376 119.935 22.08C119.935 23.1893 120.404 24.096 121.343 24.8C122.303 25.4827 123.529 26.08 125.023 26.592C126.516 27.0827 128.095 27.6053 129.759 28.16C131.423 28.7147 133.001 29.408 134.495 30.24C135.988 31.0507 137.204 32.1067 138.143 33.408C139.103 34.7093 139.583 36.384 139.583 38.432C139.583 40.8 138.985 42.7413 137.791 44.256C136.617 45.7493 135.113 46.8587 133.279 47.584C131.465 48.288 129.609 48.64 127.711 48.64C125.983 48.64 124.404 48.3733 122.975 47.84C121.545 47.2853 120.276 46.5173 119.167 45.536L114.783 48.64H114.591ZM142.212 64V63.808H146.532V18.752H142.212V18.56H156.964V30.048C157.326 26.1867 158.35 23.2107 160.036 21.12C161.742 19.0293 164.057 17.984 166.98 17.984C169.305 17.984 171.502 18.592 173.572 19.808C175.641 21.024 177.316 22.7733 178.596 25.056C179.897 27.3387 180.548 30.08 180.548 33.28C180.548 36.48 179.897 39.232 178.596 41.536C177.316 43.8187 175.641 45.5787 173.572 46.816C171.502 48.032 169.305 48.64 166.98 48.64C164.078 48.64 161.774 47.584 160.068 45.472C158.361 43.36 157.326 40.3733 156.964 36.512V63.808H161.284V64H142.212ZM164.58 47.712C165.582 47.712 166.382 47.168 166.98 46.08C167.577 44.992 168.004 43.3813 168.26 41.248C168.537 39.0933 168.676 36.4373 168.676 33.28C168.676 30.1227 168.537 27.4773 168.26 25.344C168.004 23.2107 167.577 21.6107 166.98 20.544C166.382 19.456 165.582 18.912 164.58 18.912C163.364 18.912 162.169 19.4347 160.996 20.48C159.822 21.5253 158.852 23.104 158.083 25.216C157.337 27.328 156.964 30.016 156.964 33.28C156.964 36.544 157.337 39.2427 158.083 41.376C158.852 43.488 159.822 45.0773 160.996 46.144C162.169 47.1893 163.364 47.712 164.58 47.712ZM200.548 48.64C197.241 48.64 194.383 47.936 191.972 46.528C189.583 45.12 187.737 43.2533 186.436 40.928C185.135 38.6027 184.484 36.0533 184.484 33.28C184.484 30.5067 185.135 27.9573 186.436 25.632C187.737 23.3067 189.583 21.44 191.972 20.032C194.383 18.624 197.241 17.92 200.548 17.92C203.876 17.92 206.735 18.624 209.124 20.032C211.535 21.44 213.38 23.3067 214.66 25.632C215.961 27.9573 216.612 30.5067 216.612 33.28C216.612 36.0533 215.961 38.6027 214.66 40.928C213.38 43.2533 211.535 45.12 209.124 46.528C206.735 47.936 203.876 48.64 200.548 48.64ZM200.548 48.448C201.465 48.448 202.244 48.0533 202.884 47.264C203.545 46.4747 204.079 45.3867 204.484 44C204.911 42.6133 205.22 41.0027 205.412 39.168C205.604 37.3333 205.7 35.3707 205.7 33.28C205.7 31.1893 205.604 29.2267 205.412 27.392C205.22 25.5573 204.911 23.9467 204.484 22.56C204.079 21.1733 203.545 20.0853 202.884 19.296C202.244 18.5067 201.465 18.112 200.548 18.112C199.631 18.112 198.841 18.5067 198.18 19.296C197.54 20.0853 197.017 21.1733 196.612 22.56C196.207 23.9467 195.908 25.5573 195.716 27.392C195.524 29.2267 195.428 31.1893 195.428 33.28C195.428 35.3707 195.524 37.3333 195.716 39.168C195.908 41.0027 196.207 42.6133 196.612 44C197.017 45.3867 197.54 46.4747 198.18 47.264C198.841 48.0533 199.631 48.448 200.548 48.448ZM231.779 48.448C229.56 48.448 227.864 48.128 226.691 47.488C225.517 46.8267 224.707 45.8987 224.259 44.704C223.832 43.488 223.619 42.0587 223.619 40.416V12.16C225.283 12.16 227.096 12.0213 229.059 11.744C231.043 11.4453 232.707 10.944 234.051 10.24V42.336C234.051 43.936 234.243 45.1093 234.627 45.856C235.011 46.5813 235.629 46.944 236.483 46.944C237.464 46.944 238.552 46.496 239.747 45.6C240.941 44.6827 241.912 43.3067 242.659 41.472L242.851 41.504C242.083 43.5307 240.771 45.1947 238.915 46.496C237.059 47.7973 234.68 48.448 231.779 48.448ZM218.947 18.752V18.56H240.899V18.752H218.947Z" fill="#AC3813"/>
</svg>
